HIERARCHY
ROOT Hips
{
	OFFSET 0.00000 0.00000 0.00000
	CHANNELS 6 Xposition Yposition Zposition Zrotation Yrotation Xrotation 
	JOINT LHipJoint
	{
		OFFSET 0 0 0
		CHANNELS 3 Zrotation Yrotation Xrotation
		JOINT LeftHip
		{
			OFFSET 1.38691 -1.89057 0.78360
			CHANNELS 3 Zrotation Yrotation Xrotation
			JOINT LeftKnee
			{
				OFFSET 2.59731 -7.13606 0.00000
				CHANNELS 3 Zrotation Yrotation Xrotation
				JOINT LeftAnkle
				{
					OFFSET 2.70078 -7.42033 0.00000
					CHANNELS 3 Zrotation Yrotation Xrotation
					JOINT LeftToe
					{
						OFFSET 0.16751 -0.46024 2.68862
						CHANNELS 3 Zrotation Yrotation Xrotation
						End Site
						{
							OFFSET 0.00000 -0.00000 1.37057
						}
					}
				}
			}
		}
	}
	JOINT RHipJoint
	{
		OFFSET 0 0 0
		CHANNELS 3 Zrotation Yrotation Xrotation
		JOINT RightHip
		{
			OFFSET -1.38190 -1.89056 0.78359
			CHANNELS 3 Zrotation Yrotation Xrotation
			JOINT RightKnee
			{
				OFFSET -2.57785 -7.08258 0.00000
				CHANNELS 3 Zrotation Yrotation Xrotation
				JOINT RightAnkle
				{
					OFFSET -2.77908 -7.63547 0.00000
					CHANNELS 3 Zrotation Yrotation Xrotation
					JOINT RightToe
					{
						OFFSET -0.17921 -0.49237 2.62360
						CHANNELS 3 Zrotation Yrotation Xrotation
						End Site
						{
							OFFSET -0.00000 -0.00000 1.34085
						}
					}
				}
			}
		}
	}
	JOINT lowerback
	{
		OFFSET 0 0 0
		CHANNELS 3 Zrotation Yrotation Xrotation
		JOINT Chest
		{
			OFFSET -0.10749 2.04110 -0.22549
			CHANNELS 3 Zrotation Yrotation Xrotation
			JOINT Chest2
			{
				OFFSET 0.01213 2.05840 0.00691
				CHANNELS 3 Zrotation Yrotation Xrotation
				JOINT lowerneck
				{
					OFFSET 0 0 0
					CHANNELS 3 Zrotation Yrotation Xrotation
					JOINT Neck
					{
						OFFSET 0.06585 1.81215 0.35449
						CHANNELS 3 Zrotation Yrotation Xrotation
						JOINT Head
						{
							OFFSET -0.04315 1.87555 -0.27307
							CHANNELS 3 Zrotation Yrotation Xrotation
							End Site
							{
								OFFSET -0.01775 1.89740 -0.13294
							}
						}
					}
				}
				JOINT LeftCollar
				{
					OFFSET 0 0 0
					CHANNELS 3 Zrotation Yrotation Xrotation
					JOINT LeftShoulder
					{
						OFFSET 2.98012 1.63606 0.28888
CHANNELS 3 Zrotation Xrotation Yrotation
						JOINT LeftElbow
						{
OFFSET 0 -5.598640 -0.000000
CHANNELS 3 Zrotation Xrotation Yrotation
							JOINT LeftWrist
							{
OFFSET 0 -3.595420 -0.000000
CHANNELS 3 Zrotation Xrotation Yrotation
								JOINT lhand
								{
									OFFSET 0 0 0
CHANNELS 3 Zrotation Xrotation Yrotation
									JOINT LFingers
									{
OFFSET 0 -0.572010 -0.000000
CHANNELS 3 Zrotation Xrotation Yrotation
										End Site
										{
OFFSET 0 -0.461170 -0.000000
										}
									}
								}
								JOINT LThumb
								{
OFFSET 0 0.000000 0.000000
CHANNELS 3 Zrotation Xrotation Yrotation
									End Site
									{
OFFSET 0 -0.468210 0.468210
									}
								}
							}
						}
					}
				}
				JOINT RightCollar
				{
					OFFSET 0 0 0
					CHANNELS 3 Zrotation Yrotation Xrotation
					JOINT RightShoulder
					{
						OFFSET -3.08694 1.53706 0.36335
CHANNELS 3 Zrotation Xrotation Yrotation
						JOINT RightElbow
						{
OFFSET 0 -5.809400 -0.000000
CHANNELS 3 Zrotation Xrotation Yrotation
							JOINT RightWrist
							{
OFFSET 0 -3.669530 -0.000000
CHANNELS 3 Zrotation Xrotation Yrotation
								JOINT rhand
								{
									OFFSET 0 0 0
CHANNELS 3 Zrotation Xrotation Yrotation
									JOINT RFingers
									{
OFFSET 0 -0.578430 -0.000000
CHANNELS 3 Zrotation Xrotation Yrotation
										End Site
										{
OFFSET 0 -0.466350 -0.000000
										}
									}
								}
								JOINT RThumb
								{
OFFSET 0 0.000000 0.000000
CHANNELS 3 Zrotation Xrotation Yrotation
									End Site
									{
OFFSET 0 -0.473470 0.473470
									}
								}
							}
						}
					}
				}
			}
		}
	}
}
MOTION
Frames: 4
Frame Time: 0.008333333333333333
8.086231 18.052978 -21.142974 -0.758305 6.415987 22.136027 0.000000 0.000000 0.000000 -13.910195 -12.687235 -30.765120 5.973028 14.399889 44.869130 -1.168121 -23.938654 -7.204707 0.137202 2.381708 6.562027 0.000000 0.000000 0.000000 -14.214475 21.483461 -89.212671 -19.483057 -19.992617 88.488415 2.214912 26.697415 0.779283 -0.172509 2.675401 -7.376336 -4.669165 6.201836 26.629375 2.653376 6.915494 9.151625 3.434865 3.272524 -5.327425 -3.556648 -5.733353 -26.943553 6.699135 -8.710410 25.366311 1.547944 -3.147551 13.548140 0.000000 0.000000 0.000000 11.623801 -8.510097 -36.914784 25.704850 -36.915656 8.709826 23.650136 -13.904407 -7.469609 0.000000 0.000000 0.000000 -7.125000 0.000000 0.000000 -2.714670 38.112498 -0.460667 0.000000 0.000000 0.000000 -37.360114 -53.561022 2.073783 -12.174206 -20.065203 -2.161824 -32.631538 21.289500 11.181023 0.000000 0.000000 0.000000 7.125000 0.000000 0.000000 -5.027513 43.132984 -0.231478
8.081569 17.998699 -21.015043 -0.602374 6.581613 21.905158 0.000000 0.000000 0.000000 -14.036430 -12.871745 -30.448718 6.218699 14.634188 45.848085 -1.186533 -24.302019 -7.509929 0.109741 2.122962 5.846018 0.000000 0.000000 0.000000 -14.184375 21.707438 -88.565660 -19.210402 -19.983834 87.690752 2.107302 26.179082 0.494587 -0.175852 2.700932 -7.447227 -4.809488 6.152753 26.520775 2.618090 6.825926 9.087086 3.508981 3.232436 -5.347851 -3.319002 -5.655245 -26.836457 6.448710 -8.650758 25.752026 1.426994 -3.124755 13.656820 0.000000 0.000000 0.000000 11.857685 -8.628836 -36.868210 25.597189 -36.808012 8.645230 23.719332 -14.023796 -7.353044 0.000000 0.000000 0.000000 -7.125000 0.000000 0.000000 -2.645066 37.990624 -0.456795 0.000000 0.000000 0.000000 -37.205933 -53.293546 2.491521 -12.324233 -20.288847 -2.213658 -33.056541 20.997698 11.246345 0.000000 0.000000 0.000000 7.125000 0.000000 0.000000 -5.418242 43.261504 -0.232420
8.077014 17.943364 -20.886271 -0.447757 6.756155 21.662530 0.000000 0.000000 0.000000 -14.166283 -13.064674 -30.100829 6.463832 14.862413 46.814441 -1.202188 -24.671199 -7.850815 0.082302 1.845437 5.078796 0.000000 0.000000 0.000000 -14.139459 21.930596 -87.898234 -18.942270 -19.972790 86.906054 1.995836 25.656936 0.125578 -0.181886 2.746987 -7.575144 -4.945546 6.101688 26.414091 2.588316 6.735410 9.021277 3.586802 3.191960 -5.370451 -3.081269 -5.579075 -26.736662 6.195551 -8.592464 26.145343 1.304257 -3.102326 13.770733 0.000000 0.000000 0.000000 12.091376 -8.758860 -36.815950 25.495516 -36.706054 8.584317 23.775520 -14.116759 -7.249207 0.000000 0.000000 0.000000 -7.125000 0.000000 0.000000 -2.587910 37.881606 -0.453892 0.000000 0.000000 0.000000 -37.054789 -53.006343 2.929868 -12.479989 -20.520545 -2.267797 -33.482535 20.689831 11.296442 0.000000 0.000000 0.000000 7.125000 0.000000 0.000000 -5.811104 43.373141 -0.233900
8.072756 17.885716 -20.755579 -0.307226 6.950987 21.395967 0.000000 0.000000 0.000000 -14.291064 -13.271689 -29.683943 6.705321 15.075913 47.745929 -1.220257 -25.061900 -8.191997 0.061117 1.577614 4.340090 0.000000 0.000000 0.000000 -14.065535 22.157301 -87.198501 -18.682412 -19.957067 86.144798 1.878510 25.128290 -0.388517 -0.193682 2.832884 -7.813872 -5.060181 6.045404 26.311151 2.571151 6.644451 8.954040 3.666051 3.151533 -5.395219 -2.858509 -5.510095 -26.655384 5.959726 -8.541754 26.541270 1.188021 -3.081226 13.893610 0.000000 0.000000 0.000000 12.329498 -8.919763 -36.746699 25.412753 -36.622810 8.534928 23.822844 -14.171260 -7.109813 0.000000 0.000000 0.000000 -7.125000 0.000000 0.000000 -2.535728 37.733042 -0.453845 0.000000 0.000000 0.000000 -36.919306 -52.685897 3.392692 -12.644166 -20.763274 -2.325875 -33.893261 20.370783 11.329450 0.000000 0.000000 0.000000 7.125000 0.000000 0.000000 -6.191555 43.464092 -0.235036
